# xmcd
#
# Track frame offsets: 
#        150
#        16636
#        31992
#        48038
#        63666
#        76690
#        94624
#        116051
#        130826
#        149514
#        163909
#        181958
#        197816
#
# Disc length: 2856 seconds
#
# Revision: 0
# Processed by: cddbd v1.5.1PL0 Copyright (c) Steve Scherf et al.
# Submitted via: ExactAudioCopy v0.95a5
#
DISCID=a70b260d
DTITLE=Bob Jares and Cornerstone - Starin' Down the Moon
DYEAR=1996
DGENRE=Country
TTITLE0=Five minutes more
TTITLE1=Hole I'm in
TTITLE2=Starin' down the moon
TTITLE3=In your eyes
TTITLE4=Brand new beau
TTITLE5=Cruisin'
TTITLE6=What's wrong with this picture
TTITLE7=The keys are in it
TTITLE8=Broken hearted record
TTITLE9=A woman like you
TTITLE10=Right to know
TTITLE11=Days that end in Y
TTITLE12=All screwed up
EXTD=
EXTT0=
EXTT1=
EXTT2=
EXTT3=
EXTT4=
EXTT5=
EXTT6=
EXTT7=
EXTT8=
EXTT9=
EXTT10=
EXTT11=
EXTT12=
PLAYORDER=
